<?xml version="1.0" encoding="UTF-8"?>
<svg version="1.1" xmlns="http://www.w3.org/2000/svg" width="192" height="192">
<path d="M0 0 C63.36 0 126.72 0 192 0 C192 63.36 192 126.72 192 192 C128.64 192 65.28 192 0 192 C0 128.64 0 65.28 0 0 Z " fill="#000000" transform="translate(0,0)"/>
<path d="M0 0 C8.58 0 17.16 0 26 0 C29.36923077 13.47692308 29.36923077 13.47692308 30.5 20.1875 C30.74845902 21.6471761 30.9971642 23.10681032 31.24609375 24.56640625 C31.36968262 25.29875488 31.49327148 26.03110352 31.62060547 26.78564453 C31.99537601 28.97301182 32.38699583 31.15662213 32.78515625 33.33984375 C33.99361647 39.98599706 35.11088772 46.60533894 35.9375 53.3125 C36.91086649 60.96153835 38.44338833 68.46066785 39.98828125 76.01171875 C42.63276501 88.95996863 44.56474883 101.86193161 46 115 C39.4 115 32.8 115 26 115 C25.67 110.71 25.34 106.42 25 102 C17.41 102 9.82 102 2 102 C1.34 106.29 0.68 110.58 0 115 C-6.6 115 -13.2 115 -20 115 C-19.71125 112.669375 -19.4225 110.33875 -19.125 107.9375 C-19.03879395 107.21812256 -18.95258789 106.49874512 -18.86376953 105.75756836 C-18.2963623 101.35326469 -17.24178554 97.2723336 -16 93 C-15.66694682 90.96467501 -15.37638798 88.92201644 -15.125 86.875 C-13.92105543 77.9409669 -12.16368248 69.1235974 -10.44189453 60.27734375 C-9.32784297 54.5359775 -8.28360707 48.78605542 -7.35546875 43.01171875 C-5.92990915 34.18687233 -4.33617103 25.44074257 -2.35791016 16.72070312 C-1.10908149 11.06928742 -0.58655239 5.86552387 0 0 Z " fill="#FAFAFA" transform="translate(83,39)"/>
<path d="M0 0 C0.33 0 0.66 0 1 0 C3.58578641 16.97255678 5.95627847 33.95350452 8 51 C2.72 51 -2.56 51 -8 51 C-7.30336624 42.78128705 -6.0038094 34.74339581 -4.5625 26.625 C-4.12599287 24.13807509 -3.68979167 21.65109646 -3.25390625 19.1640625 C-3.0439502 17.97071289 -2.83399414 16.77736328 -2.61767578 15.54785156 C-1.71622004 10.37000382 -0.85352644 5.18593788 0 0 Z " fill="#0A0A0A" transform="translate(96,72)"/>
<path d="M0 0 C0.33 0 0.66 0 1 0 C1.33 3.63 1.66 7.26 2 11 C1.01 10.67 0.02 10.34 -1 10 C-0.67 6.7 -0.34 3.4 0 0 Z " fill="#2A2A2A" transform="translate(96,72)"/>
</svg>